<svg width="40" height="35" viewBox="0 0 40 35" fill="none" xmlns="http://www.w3.org/2000/svg">
<path d="M2.10881 18C2.55678 13.9303 4.36314 10.2691 7.065 7.4793L10.1214 10.5355L11.5356 9.1213L8.5348 6.1207C11.4086 3.74502 15.0332 2.24437 19 2.02729V7H21V2.02729C24.9668 2.24436 28.5915 3.74505 31.4653 6.1208L28.5858 8.9999L29.9999 10.4142L32.9351 7.4794C35.6369 10.2692 37.4432 13.9303 37.8912 18H33.6843V20H38C37.9975 24.3403 36.4579 28.3201 33.894 31.4269L30.4736 28.0067L29.0594 29.4209L32.5366 32.898L32.5239 32.9103L33.9152 34.3471C37.6663 30.7148 40 25.6236 40 19.9892C40 8.949 31.0452 0 20 0C8.9548 0 0 8.949 0 19.9892C0 25.4741 2.21161 30.4446 5.78969 34.0553L7.2103 32.6475C7.204 32.6412 7.1978 32.6349 7.1915 32.6285L10.1967 29.6232L8.7825 28.209L5.86416 31.1274C3.44565 28.0662 2.00246 24.2022 2 20H6.0527V18H2.10881Z" fill="#4664A0"/>
</svg>
