<svg width="800" height="600" xmlns="http://www.w3.org/2000/svg">
 <g id="Layer_1">
  <title>Layer 1</title>
  <rect id="svg_2" height="553" width="712" y="17.8" x="45" stroke="#000" fill="#B8D078"/>
  <rect id="svg_3" height="313" width="271" y="256.8" x="261" stroke="#000" fill="#7AD6CA"/>
  <path stroke="#000" id="svg_9" d="m515.62004,88.64933c0,18.2254 -9.17817,33 -20.50001,33m20.50001,-33l0,0c0,18.2254 -9.17817,33 -20.50001,33c-11.32184,0 -20.50001,-14.77457 -20.50001,-33m0,0l0,0c0,-18.22538 9.17817,-32.99999 20.50001,-32.99999c11.32185,0 20.50001,14.77461 20.50001,32.99999l0,132.00005c0,18.22538 -9.17817,32.99994 -20.50001,32.99994c-11.32184,0 -20.50001,-14.77456 -20.50001,-32.99994l0,-132.00005z" fill="#396849"/>
  <path stroke="#000" id="svg_10" d="m252.58006,257.77413l142.00001,-233l142.00001,233l-284.00002,0z" fill="#559E84"/>
  <rect id="svg_11" height="170" width="155" y="307.8" x="321" stroke="#000" fill="#B8D078"/>
  <line id="svg_12" y2="471.8" x2="398" y1="313.8" x1="398" stroke="#000" fill="none"/>
  <line id="svg_13" y2="394.8" x2="468" y1="393.8" x1="325" stroke="#000" fill="none"/>
 </g>
</svg>